<?xml version="1.0" encoding="utf-8"?>
<!-- Svg Vector Icons : http://www.onlinewebfonts.com/icon -->
<!DOCTYPE svg PUBLIC "-//W3C//DTD SVG 1.1//EN" "http://www.w3.org/Graphics/SVG/1.1/DTD/svg11.dtd">
<svg version="1.1" xmlns="http://www.w3.org/2000/svg" xmlns:xlink="http://www.w3.org/1999/xlink" x="0px" y="0px" viewBox="0 0 1000 1000" enable-background="new 0 0 1000 1000" xml:space="preserve">
<metadata> Svg Vector Icons : http://www.onlinewebfonts.com/icon </metadata>
<g><path d="M771,163.1C722,69.7,622.5,10,515.3,10c-131.7,0-248.1,90.3-280.2,215.9c-9.2-1.5-16.8-1.5-26-1.5C98.8,224.4,10,313.2,10,423.4s88.8,199.1,199.1,199.1h551.3c127.1,0,229.7-102.6,229.7-229.7C990,270.3,893.5,169.3,771,163.1z M760.3,561.3H209.1c-76.6,0-137.8-61.3-137.8-137.8s61.3-137.8,137.8-137.8c13.8,0,27.6,1.5,39.8,6.1l33.7,10.7l4.6-35.2c18.4-111.8,114.8-196,228.2-196c90.3,0,173,53.6,209.8,136.3l9.2,18.4l24.5-1.5c1.5,0,1.5,0,3.1,0c93.4,0,168.4,75,168.4,168.4C928.8,486.2,853.7,561.3,760.3,561.3z"/><path d="M65.1,924.2l30.6-38.3c10.7-13.8,9.2-32.2-4.6-42.9s-32.2-9.2-42.9,4.6l-30.6,38.3c-10.7,13.8-9.2,32.2,4.6,42.9c6.1,4.6,12.3,6.1,18.4,6.1C49.8,936.4,59,931.8,65.1,924.2z"/><path d="M212.1,689.9c-13.8-10.7-32.2-7.7-42.9,4.6l-53.6,67.4c-10.7,13.8-9.2,33.7,4.6,44.4c6.1,4.6,12.3,6.1,18.4,6.1c9.2,0,18.4-4.6,24.5-12.3l53.6-67.4C227.4,720.5,225.9,700.6,212.1,689.9z"/><path d="M224.4,904.3c-13.8-10.7-32.2-7.7-42.9,4.6L157,939.5c-10.7,13.8-9.2,32.2,4.6,42.9c6.1,4.6,12.3,6.1,18.4,6.1c9.2,0,18.4-4.6,24.5-12.3l24.5-30.6C239.7,934.9,238.2,915,224.4,904.3z"/><path d="M395.9,689.9c-13.8-10.7-32.2-9.2-42.9,4.6L255,817c-10.7,13.8-9.2,32.2,4.6,42.9c6.1,4.6,12.3,6.1,18.4,6.1c9.2,0,18.4-4.6,24.5-12.3l98-122.5C411.2,720.5,409.7,700.6,395.9,689.9z"/><path d="M432.6,924.2l56.7-70.4c10.7-13.8,9.2-32.2-4.6-42.9c-13.8-10.7-32.2-7.7-42.9,4.6l-56.7,70.4c-10.7,13.8-9.2,32.2,4.6,42.9c6.1,4.6,12.2,6.1,18.4,6.1C417.3,936.4,426.5,931.8,432.6,924.2z"/><path d="M579.6,689.9c-13.8-10.7-32.2-9.2-42.9,4.6l-24.5,30.6c-10.7,13.8-9.2,32.2,4.6,42.9c6.1,4.6,12.3,6.1,18.4,6.1c9.2,0,18.4-4.6,24.5-12.3l24.5-30.6C594.9,720.5,593.4,700.6,579.6,689.9z"/><path d="M529.1,983.9c6.1,4.6,12.3,6.1,18.4,6.1c9.2,0,18.4-4.6,24.5-12.3l64.3-79.6c10.7-13.8,9.2-32.2-4.6-42.9s-32.2-9.2-42.9,4.6l-64.3,79.6C513.8,953.3,516.8,973.2,529.1,983.9z"/><path d="M685.3,820c9.2,0,18.4-4.6,24.5-12.3l59.7-75c10.7-13.8,9.2-32.2-4.6-42.9s-32.2-9.2-42.9,4.6l-59.7,75c-10.7,13.8-9.2,32.2,4.6,42.9C671.5,817,679.2,820,685.3,820z"/></g>
</svg>